<?xml version="1.0" encoding="utf-8"?>
<!-- Generator: Adobe Illustrator 19.0.0, SVG Export Plug-In . SVG Version: 6.00 Build 0)  -->
<svg version="1.1" id="Layer_1" xmlns="http://www.w3.org/2000/svg" xmlns:xlink="http://www.w3.org/1999/xlink" x="0px" y="0px"
	 viewBox="-763 3032.1 740 740" style="enable-background:new -763 3032.1 740 740;" xml:space="preserve">
<style type="text/css">
	.st0{fill:#333333;}
	.st1{fill:#444444;}
	.st2{fill:#3F3F3F;}
	.st3{fill:#E3245D;}
</style>
<circle class="st0" cx="-373" cy="3396.4" r="291"/>
<path class="st1" d="M-373,3163.6c128.6,0,232.8,104.2,232.8,232.8c0,128.6-104.2,232.8-232.8,232.8s-232.8-104.2-232.8-232.8
	S-501.6,3163.6-373,3163.6z"/>
<path class="st2" d="M-373,3163.8c-68.7,0-130.4,29.8-173,77.1c41.2-37.1,95.8-59.7,155.6-59.7c128.5,0,232.7,104.2,232.7,232.7
	c0,59.8-22.6,114.3-59.7,155.6c47.4-42.6,77.1-104.3,77.1-173C-140.3,3267.9-244.5,3163.8-373,3163.8z"/>
<path class="st0" d="M-239.1,3373.1c12.9,0,23.3,10.4,23.3,23.3c0,12.9-10.4,23.3-23.3,23.3h-110.6c-12.9,0-23.3-10.4-23.3-23.3
	c0-12.9,10.4-23.3,23.3-23.3H-239.1z"/>
<path class="st0" d="M-496.5,3272.9c6.8-6.8,17.4-7.3,24.8,0l98.7,98.8c7.4,7.4,6.9,17.8,0,24.6c-6.8,6.8-17.4,7.4-24.7,0
	l-98.8-98.8C-503.8,3290.4-503.4,3279.8-496.5,3272.9z"/>
<path class="st0" d="M-396.3,3356.2c22.3-12.8,50.8-5.2,63.6,17.1c12.9,22.3,5.2,50.7-17,63.6c-22.3,12.8-50.8,5.2-63.6-17.1
	C-426.2,3397.6-418.6,3369.1-396.3,3356.2z"/>
<path class="st3" d="M-488.2,3495.2c-4.5,4.5-4.5,11.9,0,16.5c4.5,4.5,11.9,4.5,16.5,0l107-107c4.5-4.5,4.5-11.9,0-16.5
	s-11.9-4.5-16.5,0L-488.2,3495.2z"/>
</svg>
